# xmcd
#
# Track frame offsets:
#	150
#	10350
#	21900
#	40500
#	52875
#	70650
#	80850
#	97350
#	108450
#	120150
#	135750
#	153150
#
# Disc length: 2246 seconds
#
# Revision: 2
# Processed by: cddbd v1.5.1PL2 Copyright (c) Steve Scherf et al.
# Submitted via: audiograbber 1.81.03
#
DISCID=8d08c40c
DTITLE=LOIZOS - MEGALOI SYNTHETES
DYEAR=1994
DGENRE=Ballad
TTITLE0=O dromos
TTITLE1=Se psahno
TTITLE2=Tipota den paei hameno
TTITLE3=Enas plai sto allon
TTITLE4=T o palio roloi
TTITLE5=H douleia kanei tous antres
TTITLE6=O fantaros
TTITLE7=Afto to agori
TTITLE8=Delfini delfinaki
TTITLE9=S' akoloutho
TTITLE10=Ola se thymizoun
TTITLE11=Kalimera ilie
EXTD=
EXTT0=
EXTT1=
EXTT2=
EXTT3=
EXTT4=
EXTT5=
EXTT6=
EXTT7=
EXTT8=
EXTT9=
EXTT10=
EXTT11=
PLAYORDER=
